# xmcd CD database file
#
# Track frame offsets:
#	183
#	26120
#	54828
#	94280
#	120328
#	153038
#
# Disc length: 2628 seconds
#
# Revision: 0
# Processed by: cddbd v1.5.2PL0 Copyright (c) Steve Scherf et al.
# Submitted via: CDex 1.50Beta7
#
DISCID=3c0a4206
DTITLE=Bert Seager Jazz Quintet - Because They Can
DYEAR=1988
DGENRE=Jazz
TTITLE0=Minor Surgery
TTITLE1=You Don't Know What Love Is
TTITLE2=Annette's New Skates
TTITLE3=Tim's Whim (with Vim)
TTITLE4=Ground Zero
TTITLE5=Coming and Going
EXTD=YEAR: 1988
EXTT0=
EXTT1=
EXTT2=
EXTT3=
EXTT4=
EXTT5=
PLAYORDER=
